<?xml version="1.0" standalone="no"?>
<!DOCTYPE svg PUBLIC "-//W3C//DTD SVG 20010904//EN"
 "http://www.w3.org/TR/2001/REC-SVG-20010904/DTD/svg10.dtd">
<svg version="1.0" xmlns="http://www.w3.org/2000/svg"
 width="500.000000pt" height="500.000000pt" viewBox="0 0 500.000000 500.000000"
 preserveAspectRatio="xMidYMid meet">

<g transform="translate(0.000000,500.000000) scale(0.100000,-0.100000)"
fill="#000000" stroke="none">
<path d="M906 3705 c-37 -13 -74 -29 -81 -35 -8 -6 -51 -13 -97 -15 -168 -7
-297 -82 -353 -206 -25 -56 -27 -70 -23 -148 5 -111 28 -161 151 -334 160
-225 194 -284 233 -406 34 -105 42 -205 19 -264 -43 -112 -178 -177 -308 -147
-101 24 -227 91 -335 178 -41 34 -42 36 -27 59 15 22 14 25 -25 62 -25 23 -40
47 -40 62 0 13 -5 31 -10 39 -7 10 -10 -28 -10 -118 0 -82 4 -131 10 -127 5 3
46 -22 92 -56 92 -68 206 -129 287 -153 70 -20 194 -21 254 0 63 21 130 83
164 152 25 50 28 67 27 142 -2 96 -35 224 -83 318 -34 67 -127 209 -215 330
-75 102 -99 148 -116 219 -13 56 -3 129 24 181 36 69 129 128 229 146 43 8 44
4 17 -34 -49 -69 -64 -173 -34 -236 34 -72 150 -106 237 -69 85 36 144 159
117 249 -12 39 -51 86 -100 118 l-25 16 30 12 c50 21 184 30 280 20 102 -11
178 -31 250 -67 80 -41 81 -41 39 -84 -53 -54 -50 -81 16 -139 l52 -46 -17
-49 c-39 -112 -29 -240 25 -342 l27 -52 -28 -33 c-15 -18 -28 -42 -29 -54 0
-25 139 -154 167 -154 19 0 163 149 163 168 0 5 -29 35 -64 66 -74 64 -85 86
-62 121 27 41 58 32 137 -41 40 -36 75 -62 79 -57 5 4 65 70 133 146 l126 139
-65 61 c-82 76 -90 91 -69 123 27 41 61 32 139 -38 l69 -62 74 78 c40 44 73
88 73 98 0 17 -109 130 -146 151 -17 10 -53 -8 -80 -39 l-21 -25 -76 25 c-113
38 -211 35 -330 -10 l-48 -19 -32 36 c-42 47 -80 65 -108 53 -18 -8 -35 -3
-83 23 -34 18 -97 45 -141 59 -70 24 -100 27 -235 30 -144 3 -160 2 -224 -21z
m-36 -151 c78 -42 97 -92 65 -172 -50 -124 -225 -114 -225 12 0 58 13 90 57
144 37 45 46 47 103 16z m885 -199 c-33 -30 -62 -51 -65 -48 -3 2 22 28 55 58
33 29 62 51 65 48 3 -3 -22 -29 -55 -58z m60 -10 c-51 -45 -95 -78 -95 -71 0
12 106 106 120 106 9 0 -2 -15 -25 -35z m9 -50 c-57 -52 -75 -64 -73 -47 1 10
110 102 122 102 6 0 -16 -25 -49 -55z m22 -30 c-33 -30 -64 -55 -70 -55 -6 0
16 25 49 55 33 30 65 54 70 54 6 0 -17 -24 -49 -54z"/>
<path d="M3758 3630 c-54 -5 -97 -17 -145 -40 -54 -25 -84 -32 -143 -35 -240
-10 -393 -158 -378 -364 7 -95 42 -168 147 -315 194 -268 260 -407 269 -563 4
-74 2 -88 -22 -137 -44 -89 -109 -126 -226 -126 -100 0 -191 31 -302 103 l-47
31 20 24 c10 14 19 31 19 39 0 8 -25 38 -55 66 l-54 52 19 55 c36 103 22 256
-33 351 l-21 37 32 36 c18 20 32 45 32 56 0 25 -138 150 -166 150 -15 0 -47
-27 -96 -81 l-74 -81 -67 61 c-75 68 -106 77 -132 37 -21 -32 -14 -45 64 -120
l62 -58 -108 -116 c-58 -65 -119 -130 -134 -146 l-27 -29 -70 62 c-73 65 -98
73 -127 41 -27 -30 -13 -60 60 -124 l65 -57 -72 -80 c-40 -44 -77 -88 -82 -97
-7 -13 8 -32 73 -94 45 -43 86 -78 92 -78 5 0 26 15 47 34 l37 34 70 -24 c97
-33 201 -33 301 1 l75 25 52 -45 c28 -25 61 -45 71 -45 11 0 34 14 51 30 l31
30 84 -50 c47 -28 122 -62 168 -77 71 -22 95 -25 167 -20 127 7 207 57 263
162 24 45 27 60 26 150 -2 176 -67 324 -262 596 -122 171 -144 216 -150 309
-5 93 18 151 86 210 43 38 144 80 193 80 17 0 16 -3 -7 -37 -55 -81 -67 -196
-27 -252 27 -37 99 -71 149 -71 56 0 92 14 133 53 100 95 93 240 -15 314 l-47
32 27 11 c167 63 489 13 626 -98 24 -20 24 -21 7 -40 -18 -20 -18 -21 17 -60
26 -29 36 -49 36 -73 0 -29 15 -51 91 -137 50 -56 95 -99 100 -96 5 3 31 -18
58 -47 l48 -53 82 73 c44 41 81 78 81 83 0 6 -18 30 -40 55 -22 25 -40 52 -40
61 0 8 -41 59 -91 113 -74 80 -97 99 -119 99 -20 0 -40 12 -69 42 -39 41 -40
42 -60 24 -19 -17 -21 -17 -63 12 -109 75 -232 118 -373 132 -55 5 -102 9
-105 8 -3 0 -40 -4 -82 -8z m-130 -182 c79 -49 84 -151 10 -219 -43 -39 -113
-41 -155 -5 -24 21 -28 31 -27 78 0 56 17 96 60 148 30 35 52 35 112 -2z m874
-189 c-35 -33 -67 -58 -70 -54 -7 7 108 114 123 114 6 0 -19 -27 -53 -60z m32
-34 c-56 -52 -75 -64 -73 -47 1 12 120 114 126 108 4 -3 -20 -31 -53 -61z m31
-31 c-33 -29 -64 -53 -70 -53 -5 0 19 27 54 59 36 33 67 57 70 54 4 -3 -21
-30 -54 -60z m74 19 c-1 -12 -110 -105 -116 -99 -3 3 19 28 48 55 52 48 70 60
68 44z m105 -73 c35 -39 45 -60 27 -60 -11 0 -81 77 -81 90 0 20 18 9 54 -30z
m-12 -43 l20 -28 -28 -31 c-54 -56 -63 -56 -106 -7 l-39 44 48 42 c45 41 48
42 66 25 11 -9 28 -30 39 -45z m-117 -77 c26 -27 36 -43 29 -50 -7 -7 -22 5
-47 34 -20 25 -37 47 -37 50 0 15 19 3 55 -34z m-2045 -478 c0 -4 -25 -32 -55
-62 -68 -67 -72 -57 -7 15 45 52 62 64 62 47z m-20 -82 c-29 -33 -56 -60 -62
-60 -5 0 14 27 43 60 29 33 56 60 61 60 6 0 -13 -27 -42 -60z m80 31 c0 -13
-101 -123 -107 -117 -5 5 95 126 103 126 2 0 4 -4 4 -9z m33 -35 c-15 -26
-104 -119 -108 -114 -6 6 96 126 108 127 4 1 4 -5 0 -13z"/>
<path d="M4640 3045 c-8 -9 -8 -15 -2 -15 12 0 26 19 19 26 -2 2 -10 -2 -17
-11z"/>
<path d="M350 1753 c-131 -68 -89 -273 56 -273 78 0 137 64 137 148 0 97 -109
168 -193 125z m111 -62 c20 -20 29 -40 29 -61 0 -37 -23 -85 -45 -94 -78 -30
-145 47 -111 128 26 62 80 74 127 27z"/>
<path d="M1290 1680 l0 -90 30 0 30 0 0 90 0 90 -30 0 -30 0 0 -90z"/>
<path d="M1529 1676 c42 -78 51 -102 51 -145 0 -50 1 -51 30 -51 30 0 30 1 30
53 0 44 8 66 50 141 28 49 50 91 50 93 0 1 -12 3 -27 3 -24 0 -33 -9 -63 -65
-19 -36 -37 -65 -40 -65 -3 0 -20 29 -39 65 -29 58 -36 65 -63 65 l-29 0 50
-94z"/>
<path d="M2360 1625 l0 -145 25 0 c24 0 25 2 25 65 0 52 4 69 20 85 45 45 70
18 70 -77 0 -71 1 -73 25 -73 25 0 25 1 25 88 0 73 -3 92 -18 105 -23 21 -71
22 -100 1 -22 -15 -22 -15 -22 40 0 53 -1 56 -25 56 l-25 0 0 -145z"/>
<path d="M3540 1725 c0 -38 3 -45 20 -45 17 0 20 7 20 45 0 38 -3 45 -20 45
-17 0 -20 -7 -20 -45z"/>
<path d="M3880 1625 l0 -145 25 0 c17 0 25 6 25 17 0 15 1 15 18 0 21 -19 73
-22 103 -7 52 28 63 129 18 176 -24 26 -75 32 -110 14 -18 -10 -19 -7 -19 40
0 49 -1 50 -30 50 l-30 0 0 -145z m145 5 c24 -26 22 -67 -4 -93 -17 -17 -25
-19 -48 -11 -23 8 -29 16 -31 48 -6 65 44 99 83 56z"/>
<path d="M4390 1745 c0 -20 5 -25 25 -25 20 0 25 5 25 25 0 20 -5 25 -25 25
-20 0 -25 -5 -25 -25z"/>
<path d="M4490 1637 c0 -90 4 -137 12 -145 7 -7 29 -12 50 -12 34 0 38 3 38
26 0 15 -4 23 -10 19 -6 -4 -17 -1 -25 5 -12 10 -15 39 -15 126 l0 114 -25 0
-25 0 0 -133z"/>
<path d="M3640 1725 c0 -19 -4 -35 -10 -35 -5 0 -10 -9 -10 -20 0 -11 4 -20 9
-20 5 0 11 -34 13 -76 4 -81 12 -94 60 -94 41 0 56 9 51 31 -3 12 -14 19 -29
19 -23 0 -24 3 -24 60 0 53 2 60 20 60 13 0 20 7 20 20 0 13 -7 20 -20 20 -16
0 -20 7 -20 35 0 32 -2 35 -30 35 -28 0 -30 -3 -30 -35z"/>
<path d="M4630 1725 c0 -24 -5 -35 -15 -35 -8 0 -15 -9 -15 -20 0 -11 7 -20
15 -20 12 0 15 -15 15 -74 0 -85 10 -99 67 -94 30 2 38 7 38 23 0 12 -9 21
-25 25 -23 5 -25 11 -28 63 -3 55 -2 57 23 57 18 0 25 5 25 20 0 15 -7 20 -25
20 -22 0 -25 4 -25 35 0 31 -3 35 -25 35 -22 0 -25 -4 -25 -35z"/>
<path d="M617 1679 c-23 -13 -47 -62 -47 -94 0 -80 85 -130 163 -94 68 31 75
131 13 181 -24 20 -100 24 -129 7z m95 -46 c24 -22 23 -75 -1 -97 -25 -23 -49
-18 -73 15 -16 21 -17 30 -8 54 18 47 49 58 82 28z"/>
<path d="M830 1540 l0 -150 25 0 c24 0 25 3 25 62 0 59 1 60 18 45 10 -10 35
-17 56 -17 86 0 121 116 54 187 -26 27 -82 31 -116 7 -20 -14 -22 -14 -22 0 0
9 -9 16 -20 16 -19 0 -20 -7 -20 -150z m140 90 c11 -11 20 -31 20 -45 0 -28
-32 -65 -55 -65 -45 0 -71 76 -38 112 21 24 48 23 73 -2z"/>
<path d="M1091 1664 c-36 -46 -26 -67 45 -93 58 -22 72 -51 24 -51 -17 0 -41
5 -52 11 -16 9 -23 8 -29 -2 -13 -21 -11 -26 20 -38 47 -20 111 -10 134 20 28
38 15 64 -41 85 -66 25 -77 34 -58 52 11 12 20 12 47 3 24 -8 35 -8 46 1 23
19 -12 38 -68 38 -39 0 -51 -5 -68 -26z"/>
<path d="M1801 1674 c-36 -26 -54 -79 -41 -120 26 -77 124 -101 181 -45 24 24
29 38 29 76 0 65 -39 105 -102 105 -24 0 -54 -7 -67 -16z m99 -44 c11 -11 20
-31 20 -45 0 -28 -32 -65 -55 -65 -23 0 -55 37 -55 65 0 28 32 65 55 65 8 0
24 -9 35 -20z"/>
<path d="M2010 1607 c0 -102 14 -127 68 -127 21 0 48 7 60 16 20 14 23 14 28
0 3 -9 17 -16 31 -16 24 0 25 2 19 38 -3 20 -6 67 -6 105 l0 67 -30 0 -30 0 0
-68 c0 -54 -4 -72 -18 -85 -46 -42 -72 -10 -72 87 0 64 -1 66 -25 66 -25 0
-25 -1 -25 -83z"/>
<path d="M2614 1676 c-31 -23 -7 -38 39 -24 32 10 40 9 57 -7 31 -28 25 -41
-19 -37 -23 2 -51 -3 -70 -12 -25 -14 -31 -23 -31 -50 0 -19 8 -40 18 -49 23
-21 75 -22 106 -2 21 14 24 14 29 0 4 -8 16 -15 28 -15 19 0 21 4 15 38 -3 20
-6 56 -6 80 0 62 -32 92 -98 92 -26 0 -57 -6 -68 -14z m112 -111 c10 -25 -16
-46 -50 -43 -33 3 -49 34 -24 49 22 14 68 10 74 -6z"/>
<path d="M2840 1613 c51 -140 47 -133 78 -133 27 0 31 5 65 98 21 55 37 102
37 105 0 4 -10 7 -23 7 -20 0 -27 -10 -47 -75 -13 -41 -26 -75 -30 -75 -4 0
-17 34 -30 75 -22 69 -26 75 -51 75 l-28 0 29 -77z"/>
<path d="M3087 1679 c-23 -13 -47 -62 -47 -94 0 -62 45 -104 111 -105 55 0
103 30 82 51 -10 10 -18 10 -38 1 -48 -22 -95 -10 -95 25 0 10 21 13 80 13 74
0 80 2 80 21 0 27 -18 60 -44 81 -24 20 -100 24 -129 7z m91 -35 c39 -27 28
-44 -28 -44 -37 0 -50 4 -50 14 0 13 36 46 50 46 3 0 16 -7 28 -16z"/>
<path d="M3290 1585 l0 -105 30 0 30 0 0 70 c0 62 3 71 24 85 43 29 56 12 56
-76 l0 -79 30 0 30 0 0 78 c0 99 -13 126 -63 130 -23 2 -48 -3 -63 -13 -21
-14 -24 -14 -24 0 0 9 -9 15 -25 15 l-25 0 0 -105z"/>
<path d="M4140 1601 c0 -68 4 -93 16 -105 20 -21 83 -20 106 1 17 15 19 15 31
-1 7 -10 22 -17 32 -15 19 4 29 35 14 45 -5 3 -9 41 -9 85 0 78 0 79 -25 79
-24 0 -25 -2 -25 -70 0 -64 -2 -71 -26 -87 -44 -28 -58 -9 -62 81 -3 73 -4 76
-27 76 -25 0 -25 -1 -25 -89z"/>
<path d="M4390 1585 l0 -105 25 0 25 0 0 105 0 105 -25 0 -25 0 0 -105z"/>
<path d="M1290 1510 c0 -27 3 -30 30 -30 27 0 30 3 30 30 0 27 -3 30 -30 30
-27 0 -30 -3 -30 -30z"/>
<path d="M1390 1065 l0 -145 30 0 30 0 0 70 c0 63 2 71 25 86 41 27 55 6 55
-82 l0 -74 30 0 30 0 0 78 c0 99 -13 126 -64 130 -25 2 -44 -2 -57 -14 -18
-17 -19 -15 -19 39 0 57 0 57 -30 57 l-30 0 0 -145z"/>
<path d="M1250 1165 c0 -24 -5 -35 -15 -35 -8 0 -15 -9 -15 -20 0 -11 7 -20
15 -20 12 0 15 -15 15 -74 0 -85 10 -99 67 -94 30 2 38 7 38 23 0 12 -9 21
-25 25 -23 5 -25 11 -28 63 -3 55 -2 57 23 57 18 0 25 5 25 20 0 15 -7 20 -25
20 -22 0 -25 4 -25 35 0 31 -3 35 -25 35 -22 0 -25 -4 -25 -35z"/>
<path d="M1880 1165 c0 -24 -5 -35 -15 -35 -8 0 -15 -9 -15 -20 0 -11 7 -20
15 -20 12 0 15 -15 15 -73 0 -43 5 -78 12 -85 14 -14 84 -16 92 -3 11 18 -6
41 -30 41 -23 0 -24 3 -24 60 0 53 2 60 20 60 13 0 20 7 20 20 0 13 -7 20 -20
20 -16 0 -20 7 -20 35 0 31 -3 35 -25 35 -22 0 -25 -4 -25 -35z"/>
<path d="M3670 1165 c0 -24 -5 -35 -15 -35 -8 0 -15 -9 -15 -20 0 -11 7 -20
15 -20 12 0 15 -15 15 -74 0 -85 10 -99 67 -94 30 2 38 7 38 23 0 12 -9 21
-25 25 -23 5 -25 11 -28 63 -3 55 -2 57 23 57 18 0 25 5 25 20 0 15 -7 20 -25
20 -22 0 -25 4 -25 35 0 31 -3 35 -25 35 -22 0 -25 -4 -25 -35z"/>
<path d="M1653 1117 c-15 -8 -19 -17 -14 -26 7 -11 15 -11 44 -2 42 14 77 1
77 -27 0 -14 -8 -17 -43 -14 -78 6 -125 -60 -77 -108 24 -24 76 -26 107 -5 19
13 22 13 27 0 3 -8 17 -15 31 -15 26 0 26 1 20 58 -10 87 -24 131 -45 142 -26
14 -100 12 -127 -3z m103 -112 c9 -23 -15 -45 -48 -45 -32 0 -47 23 -28 45 16
20 69 19 76 0z"/>
<path d="M2120 980 l0 -150 25 0 c24 0 25 3 25 62 0 59 1 60 18 45 10 -10 35
-17 56 -17 86 0 121 116 54 187 -26 27 -82 31 -116 7 -20 -14 -22 -14 -22 0 0
9 -9 16 -20 16 -19 0 -20 -7 -20 -150z m140 90 c11 -11 20 -31 20 -45 0 -28
-32 -65 -55 -65 -45 0 -71 76 -38 112 21 24 48 23 73 -2z"/>
<path d="M2393 1120 c-30 -12 -20 -45 11 -35 51 16 64 16 79 0 29 -29 21 -40
-26 -37 -77 6 -129 -66 -79 -111 23 -21 81 -22 109 -2 19 13 22 13 27 0 9 -23
56 -19 56 4 0 11 -4 23 -10 26 -5 3 -10 32 -10 64 0 47 -4 61 -23 79 -25 24
-91 29 -134 12z m103 -115 c9 -23 -15 -45 -48 -45 -32 0 -47 23 -28 45 16 20
69 19 76 0z"/>
<path d="M2637 1119 c-23 -13 -47 -62 -47 -94 0 -34 25 -82 49 -95 25 -13 78
-13 86 0 10 17 25 11 25 -9 0 -46 -51 -64 -104 -36 -30 16 -46 12 -46 -10 0
-25 59 -48 109 -42 34 4 52 13 73 36 27 30 28 35 28 146 l0 115 -25 0 c-17 0
-25 -6 -25 -17 0 -15 -1 -15 -18 0 -21 19 -77 22 -105 6z m97 -48 c12 -13 16
-32 14 -57 -2 -32 -8 -40 -31 -48 -54 -19 -93 59 -52 104 23 25 47 25 69 1z"/>
<path d="M2891 1114 c-36 -26 -54 -79 -41 -120 25 -73 119 -100 177 -50 26 23
27 25 9 32 -10 4 -27 2 -37 -4 -26 -17 -65 -15 -83 4 -29 28 -17 34 64 34 l80
0 0 31 c0 48 -47 89 -102 89 -24 0 -54 -7 -67 -16z m107 -42 c21 -27 14 -32
-43 -32 -57 0 -64 5 -42 32 23 30 60 30 85 0z"/>
<path d="M3211 1033 c44 -108 47 -146 12 -151 -17 -3 -23 -10 -23 -28 0 -20 5
-24 30 -24 18 0 37 8 47 20 17 19 101 241 102 268 1 6 -9 12 -22 12 -20 0 -26
-10 -47 -82 l-25 -82 -29 82 c-26 77 -30 82 -56 82 l-29 0 40 -97z"/>
<path d="M3451 1114 c-36 -26 -54 -79 -41 -120 25 -73 119 -100 177 -50 26 23
27 25 9 32 -10 4 -27 2 -37 -4 -26 -17 -65 -15 -83 4 -29 28 -17 34 64 34 l80
0 0 31 c0 48 -47 89 -102 89 -24 0 -54 -7 -67 -16z m107 -42 c21 -27 14 -32
-43 -32 -57 0 -64 5 -42 32 23 30 60 30 85 0z"/>
</g>
</svg>
