<?xml version="1.0" standalone="no"?>
<!DOCTYPE svg PUBLIC "-//W3C//DTD SVG 20010904//EN"
 "http://www.w3.org/TR/2001/REC-SVG-20010904/DTD/svg10.dtd">
<svg version="1.0" xmlns="http://www.w3.org/2000/svg"
 width="500.000000pt" height="500.000000pt" viewBox="0 0 500.000000 500.000000"
 preserveAspectRatio="xMidYMid meet">

<g transform="translate(0.000000,500.000000) scale(0.100000,-0.100000)"
fill="#000000" stroke="none">
<path d="M918 3711 c-32 -10 -73 -28 -91 -39 -20 -12 -45 -18 -60 -15 -13 3
-53 0 -88 -5 -152 -24 -254 -92 -304 -203 -25 -56 -27 -70 -23 -148 5 -111 28
-162 152 -335 136 -190 192 -288 226 -394 55 -171 51 -263 -17 -342 -43 -50
-72 -65 -150 -79 -44 -8 -75 -8 -114 0 -78 16 -203 79 -298 149 -82 61 -83 61
-66 86 15 24 14 25 -25 63 -30 28 -40 46 -40 69 0 17 -4 34 -10 37 -6 4 -10
-40 -10 -125 0 -81 4 -129 10 -125 5 3 46 -22 92 -56 88 -65 189 -120 277
-150 68 -24 199 -25 264 -3 63 21 130 83 164 152 39 80 39 189 -1 317 -43 139
-103 243 -272 476 -85 118 -117 193 -117 274 1 135 82 225 237 264 27 6 50 10
53 8 2 -3 -7 -21 -21 -42 -46 -67 -59 -164 -32 -229 30 -72 151 -108 239 -71
69 29 128 127 127 213 -1 40 -40 103 -85 134 l-47 33 42 18 c54 24 253 26 358
3 71 -15 161 -50 211 -82 l23 -16 -37 -38 c-53 -55 -51 -82 14 -139 l51 -46
-20 -70 c-11 -38 -20 -95 -20 -126 0 -62 28 -166 59 -215 l19 -32 -28 -33
c-16 -19 -29 -44 -30 -55 0 -26 138 -154 167 -154 11 0 51 36 96 84 l77 85
-70 61 c-78 70 -89 90 -66 125 27 41 58 32 137 -41 59 -53 74 -63 84 -52 7 7
67 73 133 146 l121 134 -65 60 c-82 77 -90 92 -69 124 27 41 61 32 139 -38
l69 -62 74 78 c46 49 73 86 73 100 0 25 -140 156 -167 156 -9 0 -31 -16 -49
-35 l-33 -35 -75 25 c-112 37 -211 34 -329 -11 l-48 -19 -32 36 c-42 47 -80
65 -108 53 -17 -8 -36 -2 -93 27 -131 69 -183 81 -361 85 -137 4 -168 2 -217
-15z m-21 -174 c53 -36 66 -87 39 -151 -31 -74 -109 -110 -172 -80 -78 37 -72
151 11 240 30 31 35 33 61 24 16 -6 43 -21 61 -33z m858 -182 c-33 -30 -62
-51 -65 -48 -3 2 22 28 55 58 33 29 62 51 65 48 3 -3 -22 -29 -55 -58z m84 18
c-1 -10 -111 -104 -116 -99 -5 5 99 105 110 106 4 0 7 -3 6 -7z m-15 -78 c-32
-30 -63 -54 -69 -54 -5 0 17 24 49 54 33 30 64 55 69 55 6 0 -16 -25 -49 -55z
m21 -30 c-33 -30 -64 -55 -70 -55 -5 0 17 25 50 55 33 30 65 54 70 54 6 0 -17
-24 -50 -54z"/>
<path d="M3750 3630 c-66 -8 -122 -26 -166 -52 -23 -14 -57 -20 -116 -23 -278
-12 -434 -211 -358 -458 11 -36 40 -94 65 -129 274 -390 324 -487 332 -658 5
-79 3 -89 -24 -140 -43 -81 -100 -114 -207 -118 -100 -5 -176 18 -288 85 l-77
46 20 25 c10 14 19 32 19 40 0 8 -25 38 -55 66 l-54 51 19 55 c36 102 22 254
-32 352 l-21 37 31 36 c18 20 32 44 32 54 0 27 -136 151 -165 151 -16 0 -46
-25 -98 -81 l-74 -81 -65 61 c-71 66 -102 76 -132 42 -25 -28 -15 -50 59 -121
l65 -62 -107 -117 c-58 -64 -119 -129 -134 -145 l-27 -29 -70 62 c-73 65 -98
73 -127 41 -27 -30 -13 -60 60 -124 l65 -57 -72 -80 c-40 -44 -77 -87 -82 -96
-7 -13 9 -34 71 -95 44 -43 85 -78 92 -78 6 0 28 15 49 34 l37 34 70 -24 c97
-33 201 -33 301 1 l75 25 52 -45 c28 -25 61 -45 71 -45 11 0 34 14 51 30 l31
30 83 -49 c154 -93 303 -123 428 -86 63 19 135 81 171 149 24 46 27 61 26 151
-1 179 -63 319 -271 609 -110 154 -136 210 -141 302 -3 61 0 78 22 121 34 69
96 119 174 143 100 31 107 29 71 -24 -34 -51 -55 -138 -45 -189 13 -72 88
-126 174 -127 193 -1 276 263 116 367 l-45 30 26 11 c47 22 167 35 253 28 146
-12 291 -61 372 -125 24 -19 24 -20 5 -40 -18 -21 -18 -22 18 -59 28 -29 37
-46 37 -72 0 -30 14 -51 91 -138 50 -56 94 -100 99 -97 5 3 31 -18 58 -47 l50
-52 86 78 86 78 -43 49 c-23 27 -42 55 -42 63 0 7 -42 59 -94 115 -69 74 -100
101 -117 101 -15 0 -43 17 -69 41 -44 40 -46 41 -64 24 -19 -16 -22 -16 -63
13 -111 76 -219 115 -363 132 -98 11 -123 11 -205 0z m-122 -182 c111 -69 59
-248 -72 -248 -48 0 -72 13 -92 52 -27 52 -7 128 52 198 30 35 52 35 112 -2z
m874 -189 c-35 -33 -67 -58 -70 -54 -7 7 108 114 123 114 6 0 -19 -27 -53 -60z
m32 -34 c-77 -71 -96 -71 -22 0 31 30 62 55 69 55 7 0 -14 -25 -47 -55z m31
-30 c-33 -30 -64 -54 -70 -54 -5 0 17 24 49 54 33 30 64 55 70 55 6 0 -16 -25
-49 -55z m74 18 c-1 -13 -110 -105 -117 -99 -3 4 19 28 49 56 52 47 70 58 68
43z m105 -75 c36 -42 44 -58 27 -58 -11 0 -81 77 -81 90 0 20 19 9 54 -32z
m-27 -24 l38 -47 -44 -38 c-24 -22 -47 -39 -51 -39 -4 0 -24 20 -44 44 l-36
44 47 41 c27 23 49 41 50 41 1 0 19 -21 40 -46z m-103 -95 c19 -23 33 -46 29
-52 -5 -9 -82 70 -83 86 -1 18 21 4 54 -34z m-2053 -486 c-12 -23 -101 -110
-101 -99 0 11 93 115 103 115 4 1 3 -7 -2 -16z m-11 -73 c-29 -33 -56 -60 -62
-60 -5 0 14 27 43 60 29 33 56 60 61 60 6 0 -13 -27 -42 -60z m80 31 c0 -13
-101 -123 -107 -117 -5 5 95 126 103 126 2 0 4 -4 4 -9z m-16 -93 c-48 -53
-82 -78 -55 -42 29 37 95 104 99 99 3 -3 -17 -28 -44 -57z"/>
<path d="M4690 3090 c-8 -5 -12 -12 -9 -15 4 -3 12 1 19 10 14 17 11 19 -10 5z"/>
<path d="M4640 3045 c-8 -9 -8 -15 -2 -15 12 0 26 19 19 26 -2 2 -10 -2 -17
-11z"/>
</g>
</svg>
